<svg class="svg-icon" style="width: 1em; height: 1em;vertical-align: middle;fill: currentColor;overflow: hidden;" viewBox="0 0 1024 1024" version="1.1" xmlns="http://www.w3.org/2000/svg"><path d="M864 416H160c-12.8 0-25.6-6.4-28.8-19.2-6.4-12.8-3.2-25.6 6.4-35.2l224-224c12.8-12.8 32-12.8 44.8 0s12.8 32 0 44.8L236.8 352H864c19.2 0 32 12.8 32 32s-12.8 32-32 32zM640 896c-9.6 0-16-3.2-22.4-9.6-12.8-12.8-12.8-32 0-44.8l169.6-169.6H160c-19.2 0-32-12.8-32-32s12.8-32 32-32h704c12.8 0 25.6 6.4 28.8 19.2 6.4 12.8 3.2 25.6-6.4 35.2l-224 224c-6.4 6.4-12.8 9.6-22.4 9.6z"  /></svg>